<svg version="1.2" xmlns="http://www.w3.org/2000/svg" viewBox="0 0 64 64" width="64" height="64">
	<title>logout-svgrepo-com-svg</title>
	<style>
		.s0 { fill: #ff0000 } 
	</style>
	<g id="Exit_1_">
		<path id="Layer" class="s0" d="m52.5 28.8l-5-5c-0.4-0.4-1-0.4-1.4 0-0.4 0.3-0.4 1 0 1.3l3.3 3.4h-14.1v2h14.1l-3.3 3.3c-0.4 0.3-0.4 1 0 1.3q0.3 0.3 0.7 0.3 0.4 0 0.7-0.3l5-5q0.2-0.3 0.2-0.6 0-0.4-0.2-0.7z"/>
		<path id="Layer" fill-rule="evenodd" class="s0" d="m41.3 40.5v10.7c0 2.1-1.6 4.3-4 4.3h-6v8l-2.8-1.2-17.2-7.3v-53.6c0-0.5 0.4-0.9 1-0.9h25c2.2 0 4 1.7 4 3.9v15.1c0 0.5-0.5 1-1 1-0.6 0-1-0.5-1-1v-15.1c0-1-0.8-1.9-2-1.9h-23.5l0.3 0.1 15.9 6.7 1.3 0.6v43.6h6c1.1 0 2-1.2 2-2.3v-10.7c0-0.6 0.4-1 1-1 0.5 0 1 0.4 1 1zm-12-29.3l-16-6.7v49.2l16 6.8z"/>
	</g>
</svg>